<svg xmlns="http://www.w3.org/2000/svg" viewBox="0 0 58.617 59.051"><defs><style>.a{fill:#2b76b8;}.b{fill:#0058a1;}</style></defs><g transform="translate(-0.012 0.109)"><path class="a" d="M76.088,24.276s.456-.261.913-1.956a13.131,13.131,0,0,0-.326-7.889,22.848,22.848,0,0,0-3-3.586A31.577,31.577,0,0,0,66.7,5.5s3.781,3.651,3.26,8.084A8.992,8.992,0,0,1,68.917,17.1,30.533,30.533,0,0,1,72.763,20.3,19.964,19.964,0,0,1,76.088,24.276Z" transform="translate(-23.211 -1.952)"/><path class="a" d="M39.316,3.939s2.282-.2,3.325-.2a49.5,49.5,0,0,1,4.955.13S46.944,2.57,43.75,1.2A21.148,21.148,0,0,0,37.1-.1,25.828,25.828,0,0,0,27.06,1.918c-2.151.913-3.26,1.5-3.26,1.5s.391-.2,1.043-.456a24.2,24.2,0,0,1,5.476-1.3C37.035.744,39.316,3.939,39.316,3.939Z" transform="translate(-8.279 0)"/><path class="a" d="M17.66,24.978s5.607,1.3,13.626-2.217C41.391,18.263,42.043,12.2,42.043,12.2A30.141,30.141,0,0,1,51.5,16.047a29.144,29.144,0,0,1,5.672,4.824s-.978,11.148-16.82,18.385a46.222,46.222,0,0,1-23.927,3.977,46.5,46.5,0,0,1-.522-6A54.659,54.659,0,0,1,17.66,24.978Z" transform="translate(-5.53 -4.284)"/><path class="a" d="M.33,37s.522,5.085,4.694,7.563C8.545,46.649,15.977,47.5,24,45.867a34.083,34.083,0,0,0,16.82-8.541,77.847,77.847,0,0,1,5.607,8.28,45.142,45.142,0,0,1,3.26,7.628s-5.411,5.672-16.429,9A39.491,39.491,0,0,1,18,63.991,22.711,22.711,0,0,1,6.263,60.47,32.742,32.742,0,0,1,1.5,51.6C-.908,44.758.33,37,.33,37Z" transform="translate(0 -12.916)"/><path class="a" d="M40.2,56.764a19.733,19.733,0,0,0,2.021,4.172,23.465,23.465,0,0,0,3.651,5.02,45.819,45.819,0,0,0,14.6-6,30.729,30.729,0,0,0,9-9.323,28.954,28.954,0,0,0,2.738-17.668C71.3,28.534,70.385,27.1,70.385,27.1a21.3,21.3,0,0,1-8.019,19.363A55.163,55.163,0,0,1,40.2,56.764Z" transform="translate(-13.987 -9.47)"/><path class="a" d="M53.245,74.6a48.386,48.386,0,0,1-19.1,6.911A28.228,28.228,0,0,1,19.8,79.881s8.345,5.607,17.8,5.02a33.289,33.289,0,0,0,15.321-5.216,8.8,8.8,0,0,0,.717-.587,16.05,16.05,0,0,0,0-2.151A8.127,8.127,0,0,0,53.245,74.6Z" transform="translate(-6.887 -26.002)"/><path class="a" d="M16.339,19.688c-2.412.065-6-.2-6.194-4.238C9.95,12.255,13.47,8.8,13.47,8.8a47.456,47.456,0,0,0-4.107,3.586,30.1,30.1,0,0,0-4.172,6,4.091,4.091,0,0,0-.326,2.673A8.488,8.488,0,0,0,9.493,27.12c6.911,3.325,14.473.326,14.473.326L21.685,18.84A22.3,22.3,0,0,1,16.339,19.688Z" transform="translate(-1.666 -3.101)"/><path class="b" d="M70.1,21.7a12.434,12.434,0,0,0,.652-1.565c.2-.717.326-1.434.326-1.434s1.891,1.369,2.738,2.151c.913.848,2.282,2.282,2.282,2.282a13.072,13.072,0,0,1-.326,1.63c-.13.522-.261.782-.456,1.434,0,0-1.5-1.5-2.608-2.477C71.6,22.872,70.1,21.7,70.1,21.7Z" transform="translate(-24.394 -6.547)"/><path class="b" d="M17.2,35.985s.326-1.825.522-2.738.391-1.76.391-1.76a17.885,17.885,0,0,0,4.3.2A38.678,38.678,0,0,0,27.11,30.9l1.174,4.3a24.031,24.031,0,0,1-5.8,1.174A20.471,20.471,0,0,1,17.2,35.985Z" transform="translate(-5.982 -10.793)"/><path class="b" d="M16.1,46.7a39.511,39.511,0,0,0,15.256-1.043C41.331,43.111,46.481,37.7,46.481,37.7s1.043,1.3,1.565,2.021,1.76,2.543,1.76,2.543A42.476,42.476,0,0,1,32.986,50.8c-10.5,2.673-16.429,1.239-16.429,1.239s-.261-2.151-.326-2.934A20.21,20.21,0,0,1,16.1,46.7Z" transform="translate(-5.599 -13.159)"/><path class="b" d="M41.765,70.421a24.509,24.509,0,0,1-1.174-2.347,8.046,8.046,0,0,0-.391-1.108,50.967,50.967,0,0,0,11.344-3.651A45.52,45.52,0,0,0,62.432,56.6s.2.522.587,1.434a19.665,19.665,0,0,1,.717,2.086,39.263,39.263,0,0,1-9.714,6.324A53.2,53.2,0,0,1,41.765,70.421Z" transform="translate(-13.987 -19.738)"/><path class="b" d="M46.9,80.989a69.012,69.012,0,0,0,7.628-2.282A43.4,43.4,0,0,0,62.677,74.6a3.752,3.752,0,0,1,.2.782L63,76.3a35.525,35.525,0,0,1-7.628,3.977A48.924,48.924,0,0,1,48.2,82.489a3.832,3.832,0,0,1-.652-.717A3.331,3.331,0,0,0,46.9,80.989Z" transform="translate(-16.319 -26.002)"/></g></svg>